<svg width="17" height="20" viewBox="0 0 17 20" fill="none" xmlns="http://www.w3.org/2000/svg">
<path id="Vector" d="M3.85047 5.67787C3.88575 6.09179 3.96532 6.50074 4.08782 6.89769C4.18907 7.15267 4.36513 7.37102 4.59283 7.52401C4.63575 7.77656 4.68373 7.98618 4.73423 8.17307C4.98673 9.11255 6.19621 10.9789 7.8097 11.0345H8.21875C9.90799 11.0168 11.1326 9.01406 11.3599 8.17307C11.4255 7.93567 11.4735 7.69575 11.5038 7.52401C11.7368 7.37252 11.9175 7.15296 12.0214 6.89516C12.1433 6.49904 12.222 6.09091 12.2563 5.67787C12.301 5.31805 12.246 4.95285 12.0972 4.62221C12.3674 1.86688 11.2033 1.16479 10.8347 1.01579C10.7411 0.979384 10.6554 0.925374 10.5822 0.856682C9.47873 -0.20908 6.72899 -0.378289 5.46648 0.909718C5.36525 1.01167 5.24849 1.09691 5.12055 1.16227C4.79988 1.32895 3.77977 2.0664 4.00955 4.62221C3.86126 4.953 3.80625 5.31806 3.85047 5.67787ZM4.58525 4.88234C4.63361 4.81889 4.65617 4.73949 4.64838 4.66009C4.4691 2.87709 4.94633 1.96285 5.40588 1.72293C5.5931 1.62507 5.76356 1.49805 5.91088 1.34663C6.90574 0.336428 9.26158 0.460178 10.1706 1.3138C10.2967 1.43409 10.4439 1.52999 10.6049 1.59665C10.7968 1.67495 11.7361 2.18762 11.4659 4.65504C11.4572 4.73413 11.4788 4.81359 11.5265 4.87728C11.6362 5.11371 11.674 5.3772 11.6351 5.63493C11.6056 5.98476 11.5413 6.33078 11.4432 6.66787C11.3759 6.8341 11.2489 6.96919 11.0872 7.04669C11.0406 7.0688 11.0001 7.102 10.9693 7.14339C10.9384 7.18477 10.9182 7.23308 10.9104 7.28409C10.8725 7.53085 10.8211 7.77535 10.7564 8.01649C10.5645 8.72868 9.46611 10.4006 8.23137 10.4132H7.84505C6.54466 10.3703 5.53718 8.68069 5.35538 8.01649C5.292 7.7752 5.24143 7.53072 5.20388 7.28409C5.19568 7.23354 5.1753 7.18574 5.14451 7.14482C5.11371 7.1039 5.07343 7.07109 5.02713 7.04922C4.86623 6.97263 4.74004 6.8383 4.67363 6.67292C4.57445 6.33425 4.50932 5.98654 4.4792 5.63493C4.43946 5.3791 4.47636 5.11722 4.58525 4.88234ZM12.7234 12.527C12.4355 12.4083 11.8876 12.1987 11.8876 12.1987C11.622 12.0859 11.379 11.9259 11.1705 11.7264L10.6655 11.2921C10.6599 11.2797 10.65 11.2699 10.6377 11.2643C10.3423 11.2643 8.96616 12.527 8.22885 12.5397H7.83495C7.10522 12.5144 5.74676 11.2592 5.45133 11.2592C5.43676 11.2582 5.42233 11.2627 5.41093 11.2719L4.90593 11.729C4.69758 11.9293 4.45461 12.0902 4.18882 12.2038C4.18882 12.2038 3.68382 12.4008 3.39092 12.5195C1.48201 13.3024 -0.707182 14.1939 0.219499 17.9089C0.704302 19.6439 6.30479 20 7.77687 20H8.34247C9.81708 20 15.4125 19.6464 15.8998 17.9089C16.8265 14.1939 14.6474 13.3024 12.7234 12.527ZM7.96877 14.5474H8.04705H8.12785L8.88535 17.5553C8.88986 17.5799 8.88699 17.6052 8.8771 17.6281C8.86722 17.6511 8.85076 17.6705 8.8298 17.6841L8.21117 18.1665C8.16817 18.1975 8.11649 18.2142 8.06346 18.2142C8.01043 18.2142 7.95875 18.1975 7.91575 18.1665L7.28197 17.6614C7.26168 17.6479 7.24583 17.6287 7.2364 17.6063C7.22696 17.5838 7.22437 17.559 7.22894 17.5351L7.96877 14.5474ZM8.04705 13.171H8.24148C8.36614 13.1674 8.48992 13.1487 8.61013 13.1155L8.3248 13.6534C8.3033 13.7141 8.26754 13.7687 8.22052 13.8126C8.1735 13.8566 8.1166 13.8886 8.05462 13.906C7.99246 13.8884 7.93534 13.8563 7.88794 13.8124C7.84054 13.7686 7.80421 13.7141 7.78192 13.6534L7.51427 13.1306C7.61101 13.1555 7.70996 13.1707 7.8097 13.1761H8.04705V13.171ZM15.2913 17.7447C15.1878 18.0831 14.3596 18.616 12.3775 18.9847C11.0434 19.2219 9.69227 19.3502 8.33743 19.3686H7.77687C6.42203 19.3502 5.07091 19.2219 3.73685 18.9847C1.75723 18.616 0.934078 18.0831 0.830552 17.7447C0.0427475 14.5727 1.70673 13.8908 3.63585 13.1003C3.9136 12.9867 4.4186 12.7922 4.42365 12.7897C4.7677 12.6462 5.08197 12.4398 5.35033 12.181L5.53971 12.0068L5.83766 12.2113C6.10531 12.3982 6.35781 12.5674 6.59516 12.7164L7.22137 13.9388C7.27041 14.0355 7.33058 14.1262 7.40064 14.209L6.62041 17.3608C6.58951 17.4995 6.59822 17.6441 6.64554 17.7781C6.69287 17.9121 6.77691 18.03 6.88807 18.1185L7.52184 18.6236C7.67605 18.7444 7.8663 18.8101 8.0622 18.8101C8.2581 18.8101 8.44834 18.7444 8.60255 18.6236L9.22118 18.1412C9.33867 18.0525 9.42775 17.9314 9.47753 17.7928C9.52731 17.6542 9.53562 17.5041 9.50146 17.3608L8.70608 14.209C8.77425 14.1317 8.83354 14.047 8.88283 13.9565L9.53933 12.6937C9.76658 12.5548 10.0065 12.3957 10.259 12.2214L10.5544 12.0194L10.7387 12.181C11.0065 12.4356 11.3189 12.6385 11.6603 12.7796C11.6603 12.7796 12.2007 12.9892 12.4886 13.1054C14.4151 13.8908 16.0791 14.5702 15.2913 17.7447Z" fill="white"/>
</svg>
