<svg width="154" height="21" viewBox="0 0 154 21" fill="none" xmlns="http://www.w3.org/2000/svg">
<g id="logo">
<path id="Vector" d="M6.75578 7.73748C7.94318 7.73748 8.62345 7.0898 8.62345 5.96146C8.62345 4.8983 7.89023 4.18545 6.80059 4.18545H4.10602V2.1915C4.10602 0.753585 3.0734 0 2.05301 0C1.03261 0 0 0.753585 0 2.1915V15.9515C0 19.2592 1.31775 20.7337 4.27303 20.7337C5.87388 20.7337 6.7904 20.3223 7.47067 19.9211C7.99207 19.6319 8.17741 19.0188 8.17741 18.5402C8.17741 17.6563 7.58472 16.6705 6.73745 16.6705C6.61932 16.6705 6.50119 16.6909 6.37288 16.7336C6.32807 16.752 6.27919 16.7744 6.22216 16.8008C5.99812 16.9027 5.69262 17.0432 5.24454 17.0432C4.71499 17.0432 4.10805 16.8558 4.10805 15.3976V7.73951H6.75578V7.73748Z" fill="white"/>
<path id="Vector_2" d="M24.4691 14.8193C24.0638 14.8193 23.6605 14.968 23.3062 15.249L23.2491 15.2999C22.5322 15.9395 21.7073 16.4242 20.7297 16.7786C19.9985 17.0434 19.2836 17.1798 18.6034 17.1798C16.8294 17.1798 15.3365 16.2307 14.5727 14.6319L24.0129 11.196C25.4997 10.6542 25.6993 9.55437 25.3897 8.70709C24.2369 5.54204 21.522 3.57458 18.304 3.57458C17.2551 3.57458 16.1634 3.77825 15.0615 4.17948C12.6419 5.06138 10.9168 6.64798 10.0757 8.77431C9.31393 10.699 9.33226 12.9638 10.1266 15.1492C11.4138 18.687 14.1511 20.7135 17.638 20.7135C18.2979 20.7135 18.9883 20.6402 19.693 20.4936C20.3305 20.3612 20.9212 20.1942 21.5016 19.9844C23.0801 19.41 24.52 18.5811 25.6606 17.5851L25.6708 17.577L25.6789 17.5668C26.0577 17.1371 26.2085 16.6258 26.1046 16.1268C25.9498 15.3814 25.2471 14.8193 24.4691 14.8193ZM16.251 7.1816C16.7703 6.99218 17.2877 6.89646 17.7867 6.89646C19.4955 6.89646 20.689 8.00036 21.2817 9.10018L13.6297 11.8844C13.2814 10.2306 13.7621 8.08793 16.251 7.1816Z" fill="white"/>
<path id="Vector_3" d="M42.4573 3.67651C41.2414 3.67651 40.3575 4.54008 40.3575 5.72952V5.7947C39.1477 4.42399 37.3554 3.67651 35.2433 3.67651C30.4753 3.67651 27.2716 7.1043 27.2716 12.2042C27.2716 17.3042 30.4203 20.732 35.1048 20.732C37.4022 20.732 39.2739 19.8989 40.4512 18.3673V18.6789C40.4512 20.1922 41.4879 20.732 42.4573 20.732C43.6671 20.732 44.4187 19.9458 44.4187 18.6789V5.73156C44.4187 4.48305 43.6488 3.67651 42.4573 3.67651ZM40.3127 12.2042C40.3127 14.6116 38.946 17.0414 35.891 17.0414C33.2738 17.0414 31.5161 15.1167 31.5161 12.2511C31.5161 9.33043 33.2921 7.36907 35.9378 7.36907C38.1151 7.36704 40.3127 8.86402 40.3127 12.2042Z" fill="white"/>
<path id="Vector_4" d="M66.0567 3.67651C63.6453 3.67651 61.7796 4.74375 60.8692 6.62364C59.8712 4.69283 58.0769 3.67651 55.6512 3.67651C53.8467 3.67651 52.2315 4.3914 51.2763 5.5788C51.2478 4.47287 50.3924 3.67651 49.2233 3.67651C48.1785 3.67651 47.1235 4.34048 47.1235 5.82321V18.6789C47.1235 20.0028 47.8526 20.732 49.1765 20.732C50.4922 20.732 51.2763 19.9641 51.2763 18.6789V11.0026C51.2763 8.4689 52.4047 7.18373 54.6328 7.18373C56.8203 7.18373 57.7123 8.39762 57.7123 11.3733V18.6321C57.7123 19.9865 58.4415 20.732 59.7653 20.732C61.0994 20.732 61.8652 19.9661 61.8652 18.6321V11.4649C61.8652 8.58296 62.9793 7.18373 65.2685 7.18373C67.4275 7.18373 68.3481 8.46483 68.3481 11.4649V18.6321C68.3481 19.9865 69.0772 20.732 70.4011 20.732C71.7351 20.732 72.5009 19.9661 72.5009 18.6321V11.4649C72.5029 6.29776 70.3338 3.67651 66.0567 3.67651Z" fill="white"/>
<path id="Vector_5" d="M97.5647 3.67651C96.6523 3.67651 95.8885 4.33437 95.5239 5.43012L92.0167 15.3367L88.5543 5.47697C88.1795 4.39547 87.7029 3.67651 86.6052 3.67651C85.432 3.67651 84.9982 4.30993 84.6092 5.47697L81.1468 15.3367L77.6416 5.4342C77.275 4.33437 76.5112 3.67651 75.5988 3.67651C74.725 3.67651 73.8227 4.39344 73.8227 5.59102C73.8227 5.97393 73.9103 6.35683 74.114 6.86804L78.831 18.8928C79.2811 19.9967 79.8494 20.7299 81.1468 20.7299C82.5664 20.7299 83.1081 19.7441 83.4197 18.8847L86.6011 10.2103L89.6928 18.8785C90.1022 20.1067 90.8823 20.7299 92.0126 20.7299C93.0921 20.7299 93.8864 20.1108 94.3773 18.8887L99.0434 6.82935C99.245 6.37516 99.3387 5.98207 99.3387 5.59102C99.3407 4.49935 98.577 3.67651 97.5647 3.67651Z" fill="white"/>
<path id="Vector_6" d="M108.123 3.72311C105.43 3.72311 103.198 4.60705 101.673 6.28123C100.304 7.78025 99.5505 9.88417 99.5505 12.204C99.5505 14.5279 100.304 16.64 101.673 18.1492C103.202 19.8376 105.433 20.7297 108.125 20.7297C114.453 20.7297 116.698 16.1369 116.698 12.202C116.698 8.29146 114.451 3.72311 108.123 3.72311ZM108.123 17.4567C105.396 17.4567 103.701 15.4444 103.701 12.204C103.701 9.06949 105.437 7.04296 108.123 7.04296C110.809 7.04296 112.545 9.06949 112.545 12.204C112.545 15.3955 110.809 17.4567 108.123 17.4567Z" fill="white"/>
<path id="Vector_7" d="M126.728 3.67651C125.109 3.67651 123.626 4.35678 122.58 5.56455C122.494 4.50953 121.61 3.67651 120.533 3.67651C119.382 3.67651 118.48 4.57878 118.48 5.72952V18.6769C118.48 20.0252 119.512 20.7299 120.533 20.7299C121.553 20.7299 122.586 20.0252 122.586 18.6769V12.526C122.586 8.81107 123.604 7.22651 125.989 7.22651C126.37 7.22651 126.59 7.27742 126.804 7.3263C126.991 7.36908 127.17 7.41185 127.423 7.41185C128.403 7.41185 129.06 6.67863 129.06 5.58899C129.058 4.42806 128.144 3.67651 126.728 3.67651Z" fill="white"/>
<path id="Vector_8" d="M138.527 12.2468L143.014 7.58065C143.637 6.95538 144.228 6.36677 144.228 5.54393C144.228 4.47873 143.425 3.67627 142.36 3.67627C141.525 3.67627 140.934 4.3158 140.362 4.937L134.934 10.5461V2.05301C134.934 0.920595 134.014 0 132.881 0C131.749 0 130.828 0.920595 130.828 2.05301V18.6807C130.828 19.8132 131.749 20.7337 132.881 20.7337C134.014 20.7337 134.934 19.8132 134.934 18.6807V13.6378L140.366 19.2877C140.462 19.3834 140.556 19.4812 140.649 19.5789C141.193 20.1472 141.757 20.7358 142.592 20.7358C143.58 20.7358 144.415 19.9007 144.415 18.9129C144.415 18.196 143.928 17.6481 143.431 17.1512L138.527 12.2468Z" fill="white"/>
<path id="Vector_9" d="M150.397 13.534C148.411 13.534 146.796 15.1492 146.796 17.137C146.796 19.1248 148.411 20.7399 150.397 20.7399C152.383 20.7399 154 19.1248 154 17.137C154 15.1492 152.383 13.534 150.397 13.534Z" fill="#FF22B1"/>
</g>
</svg>
