<svg width="24" height="24" viewBox="0 0 24 24" fill="none" xmlns="http://www.w3.org/2000/svg">
<g id="Group">
<path id="Vector" fill-rule="evenodd" clip-rule="evenodd" d="M9.2 0C10.459 0 11.6446 0.592777 12.4 1.6L13.6 3.2H19.2C21.851 3.2 24 5.34903 24 8V19.2C24 21.851 21.851 24 19.2 24H4.8C2.14903 24 0 21.851 0 19.2V4.8C0 2.14903 2.14903 0 4.8 0H9.2ZM9.2 1.6H4.8C3.03269 1.6 1.6 3.03269 1.6 4.8V19.2C1.6 20.9673 3.03269 22.4 4.8 22.4H19.2C20.9673 22.4 22.4 20.9673 22.4 19.2V8C22.4 6.23269 20.9673 4.8 19.2 4.8L13.6 4.7992L9.6 4.8C9.15817 4.8 8.8 4.44183 8.8 4C8.8 3.55817 9.15817 3.2 9.6 3.2H11.6L11.12 2.56C10.6991 1.99883 10.0557 1.65208 9.36112 1.6054L9.2 1.6ZM7.2 15.2C7.64183 15.2 8 15.5582 8 16V17.6C8 18.0418 7.64183 18.4 7.2 18.4H5.6C5.15817 18.4 4.8 18.0418 4.8 17.6V16C4.8 15.5582 5.15817 15.2 5.6 15.2H7.2ZM15.2 16C15.6418 16 16 16.3582 16 16.8C16 17.2418 15.6418 17.6 15.2 17.6H11.2C10.7582 17.6 10.4 17.2418 10.4 16.8C10.4 16.3582 10.7582 16 11.2 16H15.2ZM7.2 8.8C7.64183 8.8 8 9.15817 8 9.6V11.2C8 11.6418 7.64183 12 7.2 12H5.6C5.15817 12 4.8 11.6418 4.8 11.2V9.6C4.8 9.15817 5.15817 8.8 5.6 8.8H7.2ZM18.4 9.6C18.8418 9.6 19.2 9.95817 19.2 10.4C19.2 10.8418 18.8418 11.2 18.4 11.2H11.2C10.7582 11.2 10.4 10.8418 10.4 10.4C10.4 9.95817 10.7582 9.6 11.2 9.6H18.4Z" fill="white"/>
</g>
</svg>
