<svg width="19" height="24" viewBox="0 0 19 24" fill="none" xmlns="http://www.w3.org/2000/svg">
<path id="Vector" d="M12 0H1.33333C0.979712 0 0.640573 0.140476 0.390525 0.390524C0.140476 0.640573 0 0.979711 0 1.33333V22.6667C0 23.0203 0.140476 23.3594 0.390525 23.6095C0.640573 23.8595 0.979712 24 1.33333 24H17.3333C17.687 24 18.0261 23.8595 18.2761 23.6095C18.5262 23.3594 18.6667 23.0203 18.6667 22.6667V6.66667L12 0ZM12 1.88557L16.7811 6.66667H12V1.88557ZM17.3333 22.6667H1.33333V1.33333H10.6667V8H17.3333V22.6667ZM9.33333 10.6667C10.2563 10.6667 11.1586 10.9404 11.926 11.4531C12.6934 11.9659 13.2916 12.6948 13.6448 13.5475C13.998 14.4002 14.0904 15.3385 13.9103 16.2438C13.7303 17.149 13.2858 17.9805 12.6332 18.6332C11.9805 19.2858 11.149 19.7303 10.2438 19.9103C9.33851 20.0904 8.4002 19.998 7.54748 19.6448C6.69476 19.2916 5.96592 18.6934 5.45314 17.926C4.94036 17.1586 4.66667 16.2563 4.66667 15.3333C4.66808 14.0961 5.1602 12.9099 6.03506 12.0351C6.90993 11.1602 8.09609 10.6681 9.33333 10.6667ZM9.33333 9.33333C8.14665 9.33333 6.98661 9.68523 5.99991 10.3445C5.01322 11.0038 4.24418 11.9409 3.79006 13.0372C3.33593 14.1336 3.21711 15.34 3.44862 16.5039C3.68013 17.6678 4.25158 18.7369 5.09069 19.576C5.92981 20.4151 6.99891 20.9865 8.16279 21.218C9.32668 21.4496 10.5331 21.3307 11.6294 20.8766C12.7258 20.4225 13.6629 19.6535 14.3222 18.6668C14.9814 17.6801 15.3333 16.52 15.3333 15.3333C15.3333 13.742 14.7012 12.2159 13.576 11.0907C12.4508 9.96548 10.9246 9.33333 9.33333 9.33333ZM11.3553 17.5442L8.66667 16V12H10V15.2222L12.022 16.3895L11.3553 17.5442Z" fill="white"/>
</svg>
